<svg width="591" height="589" viewBox="0 0 591 589" fill="none" xmlns="http://www.w3.org/2000/svg">
<path d="M590.5 291.5C590.9 47.5 393 -4.16668 294 0.499991C196.5 0.499991 1.3 58.7 0.499998 291.5C-0.300002 524.3 195.833 586.5 294 588.5C392.667 591.167 590.1 535.5 590.5 291.5Z" fill="#EE0010"/>
<path d="M111 420L422.5 107C303.3 25.4 188.833 84.3333 146.5 124C30.5 234.8 74.5 367.5 111 420Z" fill="white"/>
<path d="M170 477L482 166C554 275.6 512 382.333 482 422C366 565.6 225.667 518.5 170 477Z" fill="#DFFFFF" fill-opacity="0.992157"/>
</svg>
