<svg version="1.1" id="Layer_1" xmlns="http://www.w3.org/2000/svg" xmlns:xlink="http://www.w3.org/1999/xlink" x="0px" y="0px"
	 width="100%" viewBox="0 0 256 256" enable-background="new 0 0 256 256" xml:space="preserve">
<path fill="transparent" opacity="1.000000" stroke="none" 
	d="
M39.000000,257.000000 
	C26.349457,257.000000 13.698914,257.000000 1.055467,257.000000 
	C1.062563,171.666641 1.062563,86.333305 1.062563,1.000000 
	C17.437645,1.000000 33.750164,1.000000 50.531349,1.415727 
	C54.174713,12.902586 57.230415,24.009607 60.555588,35.035362 
	C64.332428,47.558773 69.307617,59.703289 68.149635,73.337151 
	C67.378021,82.421982 68.033203,91.627998 68.049706,100.723053 
	C74.620934,100.723053 79.694603,100.723053 85.000000,100.723053 
	C85.000000,87.822662 84.995605,75.197975 85.006516,62.573292 
	C85.007660,61.247669 84.815331,59.834808 85.192291,58.610004 
	C89.098869,45.916721 93.224258,33.289757 97.031288,20.567293 
	C98.958755,14.126023 100.360550,7.527453 102.000000,1.000001 
	C153.616287,1.000000 205.232590,1.000000 256.924438,1.000000 
	C256.924438,86.333305 256.924438,171.666641 256.924438,257.000000 
	C244.579941,257.000000 232.258621,257.000000 219.177704,256.687500 
	C219.039337,255.908600 219.602478,255.319336 220.290405,254.993851 
	C233.483871,248.751572 240.169388,238.580460 240.055313,223.755371 
	C239.856567,197.924011 239.957687,172.089935 240.016251,146.257172 
	C240.050140,131.303925 226.503571,116.060204 209.822754,116.032677 
	C156.490494,115.944649 103.157715,116.098854 49.825737,115.946136 
	C31.277138,115.893021 17.631290,131.815781 17.889935,147.612732 
	C18.301874,172.772217 18.201529,197.945618 17.924067,223.108780 
	C17.758841,238.093079 24.150486,248.552261 37.570114,254.950684 
	C38.223831,255.262375 38.531296,256.300262 39.000000,257.000000 
M100.002052,80.170906 
	C100.334694,82.082428 100.916565,83.988976 100.954895,85.906380 
	C101.088448,92.587135 103.858429,97.782036 110.219421,99.887627 
	C114.576057,101.329735 119.496010,102.259811 124.003792,101.810410 
	C133.685654,100.845184 141.367813,93.485222 141.074539,83.160912 
	C140.748810,71.693909 141.000000,60.210522 141.000000,48.734268 
	C141.000000,35.287598 136.187759,28.779741 123.286217,26.234612 
	C116.883804,24.971586 111.269661,27.327282 106.324127,31.994289 
	C101.155678,36.871666 100.241867,42.953991 100.071365,49.287933 
	C99.802925,59.260056 100.000084,69.244713 100.002052,80.170906 
M176.000000,43.501823 
	C176.000000,54.661304 176.000137,65.820786 175.999939,76.980270 
	C175.999817,84.255478 174.875961,85.564156 166.049973,87.129112 
	C165.929871,66.989273 166.053146,47.046307 165.980225,27.329948 
	C160.598190,27.329948 155.861176,27.329948 151.000046,27.329948 
	C151.000046,48.468918 150.827713,69.280334 151.087036,90.086365 
	C151.187180,98.120201 157.288864,105.301041 167.253433,100.222778 
	C170.167404,98.737724 172.912003,96.920280 176.032776,95.079033 
	C176.032776,97.262764 176.032776,98.921959 176.032776,100.699043 
	C181.030609,100.699043 185.920959,100.699043 190.712006,100.699043 
	C190.712006,76.002045 190.712006,51.607006 190.712006,27.289223 
	C185.681717,27.289223 180.944305,27.289223 176.000000,27.289223 
	C176.000000,32.552280 176.000000,37.527790 176.000000,43.501823 
z"/>
<path fill="#FFFFFF" opacity="1.000000" stroke="none" 
	d="
M39.468658,257.000000 
	C38.531296,256.300262 38.223831,255.262375 37.570114,254.950684 
	C24.150486,248.552261 17.758841,238.093079 17.924067,223.108780 
	C18.201529,197.945618 18.301874,172.772217 17.889935,147.612732 
	C17.631290,131.815781 31.277138,115.893021 49.825737,115.946136 
	C103.157715,116.098854 156.490494,115.944649 209.822754,116.032677 
	C226.503571,116.060204 240.050140,131.303925 240.016251,146.257172 
	C239.957687,172.089935 239.856567,197.924011 240.055313,223.755371 
	C240.169388,238.580460 233.483871,248.751572 220.290405,254.993851 
	C219.602478,255.319336 219.039337,255.908600 218.709045,256.687500 
	C159.312439,257.000000 99.624878,257.000000 39.468658,257.000000 
M170.000000,190.500961 
	C170.000000,185.673676 169.935471,180.845261 170.018967,176.019409 
	C170.095444,171.598846 168.156311,168.355042 164.578308,165.949081 
	C160.345352,163.102768 156.439545,164.270218 152.622482,166.875488 
	C150.963989,168.007462 149.256958,169.068283 146.814941,170.652542 
	C146.814941,159.835114 146.814941,149.956345 146.814941,140.340942 
	C142.913895,140.340942 139.508896,140.340942 136.299164,140.340942 
	C136.299164,171.396774 136.299164,202.111038 136.299164,232.757339 
	C140.042923,232.757339 143.480530,232.757339 146.867981,232.757339 
	C146.995819,231.057556 147.105194,229.603348 147.281372,227.261047 
	C149.073273,228.443253 150.513016,229.089966 151.553894,230.134247 
	C155.330109,233.922882 159.784683,233.900818 164.222351,232.141296 
	C168.632446,230.392715 170.122894,226.660706 170.049072,221.961517 
	C169.889603,211.810135 170.000000,201.654480 170.000000,190.500961 
M217.942169,209.724106 
	C214.425095,209.394241 210.908005,209.064392 207.455490,208.740585 
	C206.907410,212.590744 206.344391,215.771713 206.030151,218.977066 
	C205.732407,222.014328 204.170151,223.782562 201.207306,223.949966 
	C198.329697,224.112534 195.355988,223.667572 195.014709,220.012009 
	C194.397522,213.400955 194.075470,206.762344 193.601700,199.711426 
	C202.427582,199.711426 210.168365,199.711426 218.000000,199.711426 
	C218.000000,192.999405 218.053864,186.679276 217.985809,180.360474 
	C217.907745,173.113754 214.920807,167.192032 208.028305,164.759171 
	C202.178894,162.694489 193.513412,162.813736 188.248108,168.123978 
	C183.501587,172.911011 182.085129,178.753601 182.091324,184.939728 
	C182.102615,196.174667 182.652191,207.409515 183.004852,218.643539 
	C183.237289,226.048325 187.433929,231.082184 193.956787,233.177719 
	C200.378754,235.240829 207.235413,235.090408 212.669998,229.792343 
	C218.119278,224.479950 218.159576,217.586044 217.942169,209.724106 
M121.000000,184.500427 
	C121.000000,178.072769 121.000000,171.645111 121.000000,165.275696 
	C117.037010,165.275696 113.634644,165.275696 110.000000,165.275696 
	C110.000000,175.011047 110.000008,184.472702 110.000000,193.934372 
	C110.000000,200.924408 110.049591,207.914948 109.981277,214.904312 
	C109.940598,219.065659 106.315132,221.940186 101.770256,222.045609 
	C96.525879,222.167252 98.064766,218.376938 98.048149,215.749313 
	C97.950287,200.271988 98.005981,184.793732 97.989975,169.315796 
	C97.988503,167.894562 97.846588,166.473480 97.785957,165.350159 
	C93.559837,165.350159 89.822037,165.350159 86.000038,165.350159 
	C86.000038,183.335953 85.949867,200.972000 86.049980,218.607193 
	C86.066452,221.509308 86.298409,224.554855 87.200821,227.279022 
	C89.510902,234.252686 96.023445,234.970749 103.228073,230.201797 
	C105.471512,228.716812 107.430641,226.802292 110.271095,224.466736 
	C110.271095,228.019272 110.271095,230.434113 110.271095,232.691071 
	C114.030975,232.691071 117.435036,232.691071 121.000000,232.691071 
	C121.000000,216.755203 121.000000,201.127701 121.000000,184.500427 
M69.265480,232.941757 
	C69.510315,231.369156 69.963585,229.797134 69.968079,228.223846 
	C70.018570,210.560562 70.000000,192.897110 70.000000,175.233688 
	C70.000000,167.614380 70.000000,159.995071 70.000000,151.984558 
	C75.142456,151.984558 79.894142,151.984558 84.791122,151.984558 
	C84.791122,147.846848 84.791122,144.108932 84.791122,140.211212 
	C70.509750,140.211212 56.437656,140.211212 42.212883,140.211212 
	C42.212883,144.162216 42.212883,147.900269 42.212883,152.035217 
	C47.159542,152.035217 51.910934,152.035217 57.036530,152.035217 
	C57.036530,179.169235 57.036530,205.907852 57.036530,232.995865 
	C61.048916,232.995865 64.676414,232.995865 69.265480,232.941757 
z"/>
<path fill="#FFFFFF" opacity="1.000000" stroke="none" 
	d="
M101.532394,1.000001 
	C100.360550,7.527453 98.958755,14.126023 97.031288,20.567293 
	C93.224258,33.289757 89.098869,45.916721 85.192291,58.610004 
	C84.815331,59.834808 85.007660,61.247669 85.006516,62.573292 
	C84.995605,75.197975 85.000000,87.822662 85.000000,100.723053 
	C79.694603,100.723053 74.620934,100.723053 68.049706,100.723053 
	C68.033203,91.627998 67.378021,82.421982 68.149635,73.337151 
	C69.307617,59.703289 64.332428,47.558773 60.555588,35.035362 
	C57.230415,24.009607 54.174713,12.902586 51.000008,1.415727 
	C56.022091,1.000000 61.044186,1.000000 66.536720,1.399700 
	C70.120354,13.050410 73.233543,24.301420 76.636490,36.599602 
	C78.075188,31.445047 79.394829,27.355751 80.342239,23.181965 
	C82.014427,15.815125 83.459724,8.396784 85.000000,1.000000 
	C90.354927,1.000000 95.709862,1.000000 101.532394,1.000001 
z"/>
<path fill="TRANSPARENT" opacity="1.000000" stroke="none" 
	d="
M84.532066,1.000000 
	C83.459724,8.396784 82.014427,15.815125 80.342239,23.181965 
	C79.394829,27.355751 78.075188,31.445047 76.636490,36.599602 
	C73.233543,24.301420 70.120354,13.050410 67.003586,1.399700 
	C72.688042,1.000000 78.376083,1.000000 84.532066,1.000000 
z"/>
<path fill="#FFFFFF" opacity="1.000000" stroke="none" 
	d="
M100.001091,79.697487 
	C100.000084,69.244713 99.802925,59.260056 100.071365,49.287933 
	C100.241867,42.953991 101.155678,36.871666 106.324127,31.994289 
	C111.269661,27.327282 116.883804,24.971586 123.286217,26.234612 
	C136.187759,28.779741 141.000000,35.287598 141.000000,48.734268 
	C141.000000,60.210522 140.748810,71.693909 141.074539,83.160912 
	C141.367813,93.485222 133.685654,100.845184 124.003792,101.810410 
	C119.496010,102.259811 114.576057,101.329735 110.219421,99.887627 
	C103.858429,97.782036 101.088448,92.587135 100.954895,85.906380 
	C100.916565,83.988976 100.334694,82.082428 100.001091,79.697487 
M116.000053,81.089622 
	C115.924217,84.773766 117.585426,87.032623 121.399712,86.952415 
	C125.514282,86.865906 125.020302,83.740044 125.012657,80.956665 
	C124.982018,69.808838 124.876686,58.658726 125.071312,47.514214 
	C125.133842,43.933136 124.326363,41.849865 120.362488,41.988186 
	C116.507431,42.122707 115.947823,44.543636 115.970512,47.724720 
	C116.047646,58.539307 116.000000,69.354782 116.000053,81.089622 
z"/>
<path fill="#FFFFFF" opacity="1.000000" stroke="none" 
	d="
M176.000000,43.002563 
	C176.000000,37.527790 176.000000,32.552280 176.000000,27.289223 
	C180.944305,27.289223 185.681717,27.289223 190.712006,27.289223 
	C190.712006,51.607006 190.712006,76.002045 190.712006,100.699043 
	C185.920959,100.699043 181.030609,100.699043 176.032776,100.699043 
	C176.032776,98.921959 176.032776,97.262764 176.032776,95.079033 
	C172.912003,96.920280 170.167404,98.737724 167.253433,100.222778 
	C157.288864,105.301041 151.187180,98.120201 151.087036,90.086365 
	C150.827713,69.280334 151.000046,48.468918 151.000046,27.329948 
	C155.861176,27.329948 160.598190,27.329948 165.980225,27.329948 
	C166.053146,47.046307 165.929871,66.989273 166.049973,87.129112 
	C174.875961,85.564156 175.999817,84.255478 175.999939,76.980270 
	C176.000137,65.820786 176.000000,54.661304 176.000000,43.002563 
z"/>
<path fill="TRANSPARENT" opacity="1.000000" stroke="none" 
	d="
M170.000000,191.000763 
	C170.000000,201.654480 169.889603,211.810135 170.049072,221.961517 
	C170.122894,226.660706 168.632446,230.392715 164.222351,232.141296 
	C159.784683,233.900818 155.330109,233.922882 151.553894,230.134247 
	C150.513016,229.089966 149.073273,228.443253 147.281372,227.261047 
	C147.105194,229.603348 146.995819,231.057556 146.867981,232.757339 
	C143.480530,232.757339 140.042923,232.757339 136.299164,232.757339 
	C136.299164,202.111038 136.299164,171.396774 136.299164,140.340942 
	C139.508896,140.340942 142.913895,140.340942 146.814941,140.340942 
	C146.814941,149.956345 146.814941,159.835114 146.814941,170.652542 
	C149.256958,169.068283 150.963989,168.007462 152.622482,166.875488 
	C156.439545,164.270218 160.345352,163.102768 164.578308,165.949081 
	C168.156311,168.355042 170.095444,171.598846 170.018967,176.019409 
	C169.935471,180.845261 170.000000,185.673676 170.000000,191.000763 
M147.000000,210.454376 
	C147.000244,213.275604 146.819016,216.111420 147.044281,218.914566 
	C147.362961,222.879730 150.523499,223.533920 153.650848,223.986603 
	C156.789719,224.440994 158.032257,223.195251 158.073318,219.847717 
	C158.228973,207.159164 158.836060,194.474289 158.853729,181.787445 
	C158.857330,179.203278 157.750839,175.242096 155.922668,174.293976 
	C150.852722,171.664597 147.043182,174.690079 147.013214,180.590530 
	C146.964325,190.215637 147.000000,199.841187 147.000000,210.454376 
z"/>
<path fill="TRANSPARENT" opacity="1.000000" stroke="none" 
	d="
M217.968964,210.197281 
	C218.159576,217.586044 218.119278,224.479950 212.669998,229.792343 
	C207.235413,235.090408 200.378754,235.240829 193.956787,233.177719 
	C187.433929,231.082184 183.237289,226.048325 183.004852,218.643539 
	C182.652191,207.409515 182.102615,196.174667 182.091324,184.939728 
	C182.085129,178.753601 183.501587,172.911011 188.248108,168.123978 
	C193.513412,162.813736 202.178894,162.694489 208.028305,164.759171 
	C214.920807,167.192032 217.907745,173.113754 217.985809,180.360474 
	C218.053864,186.679276 218.000000,192.999405 218.000000,199.711426 
	C210.168365,199.711426 202.427582,199.711426 193.601700,199.711426 
	C194.075470,206.762344 194.397522,213.400955 195.014709,220.012009 
	C195.355988,223.667572 198.329697,224.112534 201.207306,223.949966 
	C204.170151,223.782562 205.732407,222.014328 206.030151,218.977066 
	C206.344391,215.771713 206.907410,212.590744 207.455490,208.740585 
	C210.908005,209.064392 214.425095,209.394241 217.968964,210.197281 
M194.834137,177.688904 
	C194.451706,182.002228 194.069275,186.315552 193.673126,190.783615 
	C198.533020,190.783615 202.600006,190.783615 207.390442,190.783615 
	C206.902908,187.001022 206.802063,183.408646 205.876144,180.043274 
	C205.279800,177.875778 203.901108,175.125549 202.101776,174.282410 
	C199.674500,173.145004 196.501068,173.578156 194.834137,177.688904 
z"/>
<path fill="TRANSPARENT" opacity="1.000000" stroke="none" 
	d="
M121.000000,185.000305 
	C121.000000,201.127701 121.000000,216.755203 121.000000,232.691071 
	C117.435036,232.691071 114.030975,232.691071 110.271095,232.691071 
	C110.271095,230.434113 110.271095,228.019272 110.271095,224.466736 
	C107.430641,226.802292 105.471512,228.716812 103.228073,230.201797 
	C96.023445,234.970749 89.510902,234.252686 87.200821,227.279022 
	C86.298409,224.554855 86.066452,221.509308 86.049980,218.607193 
	C85.949867,200.972000 86.000038,183.335953 86.000038,165.350159 
	C89.822037,165.350159 93.559837,165.350159 97.785957,165.350159 
	C97.846588,166.473480 97.988503,167.894562 97.989975,169.315796 
	C98.005981,184.793732 97.950287,200.271988 98.048149,215.749313 
	C98.064766,218.376938 96.525879,222.167252 101.770256,222.045609 
	C106.315132,221.940186 109.940598,219.065659 109.981277,214.904312 
	C110.049591,207.914948 110.000000,200.924408 110.000000,193.934372 
	C110.000008,184.472702 110.000000,175.011047 110.000000,165.275696 
	C113.634644,165.275696 117.037010,165.275696 121.000000,165.275696 
	C121.000000,171.645111 121.000000,178.072769 121.000000,185.000305 
z"/>
<path fill="TRANSPARENT" opacity="1.000000" stroke="none" 
	d="
M68.784698,232.968811 
	C64.676414,232.995865 61.048916,232.995865 57.036530,232.995865 
	C57.036530,205.907852 57.036530,179.169235 57.036530,152.035217 
	C51.910934,152.035217 47.159542,152.035217 42.212883,152.035217 
	C42.212883,147.900269 42.212883,144.162216 42.212883,140.211212 
	C56.437656,140.211212 70.509750,140.211212 84.791122,140.211212 
	C84.791122,144.108932 84.791122,147.846848 84.791122,151.984558 
	C79.894142,151.984558 75.142456,151.984558 70.000000,151.984558 
	C70.000000,159.995071 70.000000,167.614380 70.000000,175.233688 
	C70.000000,192.897110 70.018570,210.560562 69.968079,228.223846 
	C69.963585,229.797134 69.510315,231.369156 68.784698,232.968811 
z"/>
<path fill="TRANSPARENT" opacity="1.000000" stroke="none" 
	d="
M116.000031,80.629776 
	C116.000000,69.354782 116.047646,58.539307 115.970512,47.724720 
	C115.947823,44.543636 116.507431,42.122707 120.362488,41.988186 
	C124.326363,41.849865 125.133842,43.933136 125.071312,47.514214 
	C124.876686,58.658726 124.982018,69.808838 125.012657,80.956665 
	C125.020302,83.740044 125.514282,86.865906 121.399712,86.952415 
	C117.585426,87.032623 115.924217,84.773766 116.000031,80.629776 
z"/>
<path fill="#FFFFFF" opacity="1.000000" stroke="none" 
	d="
M147.000000,209.960449 
	C147.000000,199.841187 146.964325,190.215637 147.013214,180.590530 
	C147.043182,174.690079 150.852722,171.664597 155.922668,174.293976 
	C157.750839,175.242096 158.857330,179.203278 158.853729,181.787445 
	C158.836060,194.474289 158.228973,207.159164 158.073318,219.847717 
	C158.032257,223.195251 156.789719,224.440994 153.650848,223.986603 
	C150.523499,223.533920 147.362961,222.879730 147.044281,218.914566 
	C146.819016,216.111420 147.000244,213.275604 147.000000,209.960449 
z"/>
<path fill="#FFFFFF" opacity="1.000000" stroke="none" 
	d="
M194.924103,177.271057 
	C196.501068,173.578156 199.674500,173.145004 202.101776,174.282410 
	C203.901108,175.125549 205.279800,177.875778 205.876144,180.043274 
	C206.802063,183.408646 206.902908,187.001022 207.390442,190.783615 
	C202.600006,190.783615 198.533020,190.783615 193.673126,190.783615 
	C194.069275,186.315552 194.451706,182.002228 194.924103,177.271057 
z"/>
</svg>