<svg width="700" height="700" viewBox="0 0 700 700" fill="none" xmlns="http://www.w3.org/2000/svg">
<rect x="1" y="0" width="700" height="700" rx="30" fill="transparent"/>
<path transform="matrix(1,0,0,1,0,0)" d="M 168.8 525.1 L 316.8 351.6 L 168.8 189.1 C 159.8 181.8 134.6 171.5 105.8 189.1 C 77 206.7 81.5 229.8 87.3 239.1 L 168.8 351.6 L 87.3 469.6 C 81.6 477.8 77.4 500.3 105.8 525.1 C 134.2 549.9 159.6 535.4 168.8 525.1 Z" fill="transparent"/>
<path d="M 335 44 L 615.5 348.5 L 335 655.5 C 326.2 663.5 301.5 674.7 273.5 655.5 C 245.5 636.3 250.5 613.2 256.5 604 L 490 348.5 L 256.5 95 C 251.3 86 247.5 63.2 273.5 44 C 299.5 24.8 325.3 36 335 44 Z" fill="transparent"/>
</svg>
