<svg width="450" height="450" viewBox="0 0 450 450" fill="none" xmlns="http://www.w3.org/2000/svg">
<path d="M323.621 54.8787L159.118 219.382C157.948 220.552 157.946 222.449 159.115 223.621L323.621 388.618C324.184 389.183 324.948 389.5 325.745 389.5H425.681C428.364 389.5 429.698 386.246 427.787 384.363L264.672 223.64C263.478 222.464 263.48 220.538 264.675 219.363L427.768 59.1401C429.684 57.258 428.351 54 425.665 54H325.743C324.947 54 324.184 54.3161 323.621 54.8787Z" fill="url(#paint0_linear_2_20)"/>
<path d="M17 285C17 280.6 21.3333 279.167 23.5 279H96C100.4 279 101.5 283 101.5 285C103.5 313 116 323.5 139 322C162 320.5 165 289.416 165 274.5C165 264.824 165.991 262.366 167.973 262.823C168.33 262.905 168.635 263.131 168.898 263.387L238.589 331.128C239.446 331.961 239.731 333.225 239.277 334.331C231.084 354.254 200.524 403.823 119 396C20 386.5 17 290.5 17 285Z" fill="url(#paint1_linear_2_20)"/>
<path d="M165 57V178.5C165 181.049 168.099 182.305 169.874 180.476L245.153 102.873C245.696 102.313 246 101.564 246 100.784V57C246 55.3431 244.657 54 243 54H168C166.343 54 165 55.3431 165 57Z" fill="url(#paint2_linear_2_20)"/>
<defs>
<linearGradient id="paint0_linear_2_20" x1="324" y1="389" x2="324" y2="54" gradientUnits="userSpaceOnUse">
<stop stop-color="#ED900B"/>
<stop offset="0.165" stop-color="#F7A900"/>
<stop offset="0.345" stop-color="#FFC200"/>
<stop offset="0.525" stop-color="#FFD417"/>
<stop offset="0.695" stop-color="#FFD417"/>
<stop offset="0.845" stop-color="#FCE541"/>
<stop offset="1" stop-color="#F6EC8B"/>
</linearGradient>
<linearGradient id="paint1_linear_2_20" x1="128.973" y1="397.067" x2="128.973" y2="272.736" gradientUnits="userSpaceOnUse">
<stop stop-color="#7BD3FF"/>
<stop offset="0.491667" stop-color="#95DCFF"/>
<stop offset="1" stop-color="#ABE3FF"/>
</linearGradient>
<linearGradient id="paint2_linear_2_20" x1="205.5" y1="54" x2="205.5" y2="185.5" gradientUnits="userSpaceOnUse">
<stop stop-color="#FCFFFF"/>
<stop offset="1" stop-color="#C7E9FF"/>
</linearGradient>
</defs>
</svg>
